<?xml version="1.0" encoding="UTF-8"?>
<svg version="1.1" xmlns="http://www.w3.org/2000/svg" width="771" height="767">
<path d="M0 0 C2.5845344 -0.00461431 5.16906617 -0.01097077 7.75359249 -0.01890898 C13.35150302 -0.03328072 18.94925893 -0.03296409 24.54717636 -0.02272034 C32.87174226 -0.00752877 41.19617884 -0.01535716 49.520744 -0.02755357 C64.39230308 -0.04857249 79.26379326 -0.04680857 94.13535884 -0.03523792 C107.1499695 -0.02516218 120.16455494 -0.02255518 133.1791687 -0.02732849 C134.47581558 -0.0277868 134.47581558 -0.0277868 135.79865735 -0.02825437 C139.30796549 -0.02949979 142.81727363 -0.0307734 146.32658174 -0.03209343 C179.22374079 -0.04432008 212.12085605 -0.03325041 245.01800834 -0.01170584 C274.22337342 0.00727555 303.42866873 0.00557699 332.6340332 -0.0135498 C365.47233049 -0.03498413 398.3105891 -0.04345286 431.1488924 -0.03110075 C434.65168062 -0.02981795 438.15446885 -0.02856658 441.65725708 -0.02732849 C442.95090122 -0.02685403 442.95090122 -0.02685403 444.27067959 -0.02636998 C457.27477318 -0.02182661 470.27883876 -0.02712902 483.28292847 -0.0372467 C498.07421253 -0.04869776 512.86541712 -0.04579458 527.65669131 -0.02412373 C535.92739509 -0.01240483 544.19792663 -0.01157369 552.46862582 -0.02670843 C558.65315408 -0.03677428 564.83748069 -0.02580543 571.02198422 -0.00681013 C573.51706078 -0.00235553 576.01216049 -0.00458446 578.50722206 -0.01431328 C594.93152144 -0.07342442 610.2835154 0.4169655 625.04321289 8.50793457 C625.68387695 8.83793457 626.32454102 9.16793457 626.98461914 9.50793457 C647.17996432 20.08054881 660.3977309 37.22359705 668.41040039 58.17980957 C670.86621043 66.28969388 671.71122656 74.0034914 671.6754818 82.45457649 C671.67898787 83.51655494 671.68249395 84.5785334 671.68610626 85.67269301 C671.69539765 89.22525825 671.6905027 92.77765875 671.68563843 96.33023071 C671.68937582 98.90545977 671.69397769 101.48068768 671.69936907 104.05591381 C671.70965376 109.65204782 671.71251553 115.24814725 671.71045685 120.84428978 C671.70740287 129.1663423 671.71573964 137.48835663 671.7262061 145.81040172 C671.7455367 161.54019212 671.75117398 177.26996948 671.75232022 192.99977036 C671.75323974 205.14899747 671.75735872 217.29821947 671.76372147 229.44744492 C671.76551659 232.94619365 671.76729622 236.44494239 671.76907122 239.94369113 C671.76973437 241.24844107 671.76973437 241.24844107 671.77041091 242.57954958 C671.78271752 267.04299801 671.79061222 291.50644466 671.78972435 315.96989632 C671.78969319 316.89202032 671.78966204 317.81414433 671.78962993 318.76421149 C671.78946372 323.43777912 671.78926564 328.11134676 671.78906052 332.78491439 C671.78900068 334.17716149 671.78900068 334.17716149 671.78893964 335.5975348 C671.78885876 337.47451012 671.78877517 339.35148544 671.78868886 341.22846076 C671.78746356 370.42613081 671.80247339 399.62375438 671.82983398 428.82141113 C671.86057089 461.63548751 671.8777655 494.44953335 671.87590754 527.26362503 C671.87575828 530.76425989 671.87566087 534.26489476 671.87559891 537.76552963 C671.87556394 539.05841755 671.87556394 539.05841755 671.87552828 540.37742442 C671.87546679 554.23382505 671.88822566 568.09018526 671.90546344 581.94657389 C671.92243676 595.87878871 671.92438047 609.81094456 671.91124479 623.74316402 C671.9038669 632.01384431 671.90747875 640.28434516 671.92712947 648.55500635 C671.94057911 654.73975391 671.93298712 660.92431127 671.91738303 667.10905002 C671.91431271 669.60430981 671.91794662 672.09958914 671.92910318 674.59482588 C671.99711464 690.89010646 671.56880314 706.28784802 663.54321289 720.94543457 C663.19154053 721.61099365 662.83986816 722.27655273 662.47753906 722.96228027 C661.47984632 724.82417005 660.45530226 726.66778218 659.41821289 728.50793457 C658.95801758 729.34840332 658.49782227 730.18887207 658.02368164 731.05480957 C647.37205059 748.68953409 628.57915054 760.12806803 609.22715708 765.85343319 C604.57281139 766.93792454 600.02555853 766.92196998 595.26575184 766.89104462 C594.18152493 766.89600413 593.09729803 766.90096365 591.98021576 766.90607345 C588.35190961 766.91901314 584.72397244 766.91064972 581.09565735 766.90234375 C578.46608285 766.90723342 575.83653488 766.91330306 573.20696896 766.92080164 C567.49213055 766.93469351 561.77737129 766.93745356 556.06251907 766.93284225 C547.56401297 766.92600267 539.06558686 766.93627736 530.56709187 766.94979981 C514.50423863 766.97470158 498.44141865 766.9792292 482.3785492 766.97733384 C469.97282751 766.97596036 457.56711736 766.97978042 445.16139793 766.98725891 C443.37857498 766.98830925 441.59575202 766.98935687 439.81292906 766.99040177 C438.48542884 766.99118079 438.48542884 766.99118079 437.13111042 766.99197554 C436.24448198 766.99249569 435.35785354 766.99301583 434.44435757 766.99355173 C433.55623438 766.99407572 432.66811119 766.99459972 431.75307517 766.99513959 C406.7752069 767.00972204 381.79734285 767.01800579 356.81947041 767.01338959 C355.877944 767.01321763 354.93641759 767.01304568 353.96636007 767.01286851 C349.19442933 767.01197963 344.4224986 767.01103482 339.65056787 767.0100705 C338.70286372 767.00987947 337.75515957 767.00968844 336.77873711 767.00949161 C334.86224869 767.00910452 332.94576027 767.00871419 331.02927186 767.00832064 C301.21398155 767.00235167 271.39876889 767.01778466 241.58349609 767.04992676 C208.07760866 767.08601694 174.57177045 767.10533453 141.06586236 767.10038805 C137.4919438 767.09991808 133.91802524 767.09950783 130.34410667 767.09913635 C129.46413302 767.09903397 128.58415936 767.09893158 127.67751983 767.09882609 C114.40282733 767.09763206 101.12818807 767.10958805 87.8535099 767.12828064 C72.75206267 767.14953542 57.65072701 767.15334942 42.54927478 767.13398105 C34.10283039 767.12366812 25.65665828 767.12709086 17.2102386 767.1505119 C11.56127947 767.16478427 5.912521 767.16072948 0.26357527 767.14206614 C-2.95054779 767.13195359 -6.16404027 767.13226903 -9.37814888 767.14938682 C-35.69247176 767.27995858 -54.87109147 760.71333107 -74.26928711 742.13293457 C-93.87422641 721.87334879 -97.19498363 697.91549036 -97.08972168 670.96411133 C-97.09433601 668.38370173 -97.10069248 665.80329476 -97.10863066 663.22289324 C-97.12300219 657.63399501 -97.1226859 652.04525165 -97.11244202 646.45634651 C-97.09725024 638.14518179 -97.10507894 629.83414661 -97.11727525 621.52298264 C-97.13829401 606.67535175 -97.13653031 591.82778987 -97.1249596 576.98015247 C-97.1148838 563.98648119 -97.11227688 550.99283516 -97.11705017 537.99916077 C-97.11735571 537.13611586 -97.11766125 536.27307095 -97.11797605 535.38387317 C-97.11922147 531.88019197 -97.12049508 528.37651079 -97.12181511 524.87282962 C-97.13404173 492.02850788 -97.12297215 459.18423001 -97.10142752 426.33991504 C-97.08244614 397.18154259 -97.08414469 368.02324001 -97.10327148 338.86486816 C-97.12470587 306.07930858 -97.1331745 273.29378772 -97.12082243 240.5082221 C-97.11953963 237.01105087 -97.11828826 233.51387962 -97.11705017 230.01670837 C-97.11673386 229.1556621 -97.11641755 228.29461582 -97.11609166 227.40747723 C-97.11154831 214.42431519 -97.11685065 201.44118122 -97.12696838 188.45802307 C-97.13841951 173.69052753 -97.13551611 158.9231116 -97.11384541 144.15562594 C-97.10212663 135.89825278 -97.1012952 127.64105213 -97.11643011 119.38368356 C-97.12649613 113.20907861 -97.11552687 107.03467562 -97.09653181 100.86009544 C-97.09207729 98.36905655 -97.09430596 95.87799446 -97.10403496 93.38697058 C-97.16240778 77.19433719 -96.73605226 61.79564399 -88.83178711 47.19543457 C-88.48744629 46.53720703 -88.14310547 45.87897949 -87.78833008 45.20080566 C-76.94415603 24.98694962 -60.10739323 10.80535086 -38.43183041 3.4371686 C-25.68208154 -0.22278544 -13.18256325 -0.05140185 0 0 Z " fill="#FEC000" transform="translate(98.581787109375,0.4920654296875)"/>
<path d="M0 0 C0.92403625 0.00370605 1.84807251 0.00741211 2.80010986 0.01123047 C32.80462187 0.18246615 61.16004072 5.23399863 83.7421875 26.59375 C95.3754832 38.86771996 102.81954803 53.82624899 107.4375 70 C107.74941284 71.08812988 107.74941284 71.08812988 108.06762695 72.19824219 C109.34740375 77.06173034 109.61840583 81.41170999 109.4375 86.4375 C101.52790755 89.74516072 93.47271578 92.51352864 85.3359375 95.203125 C84.00492712 95.64554853 82.67400623 96.08824136 81.34317017 96.53118896 C77.87537504 97.6846005 74.40639338 98.83440052 70.93713379 99.98339844 C67.38313265 101.16119094 63.8302908 102.34246985 60.27734375 103.5234375 C53.33184577 105.83149823 46.3850879 108.13573684 39.4375 110.4375 C36.91675268 107.91675268 36.6606949 105.99924003 35.75 102.5625 C33.6818563 95.55422438 30.62962388 89.4262484 26.4375 83.4375 C25.7775 83.1075 25.1175 82.7775 24.4375 82.4375 C24.4375 81.7775 24.4375 81.1175 24.4375 80.4375 C12.47384505 74.31256661 1.49881167 71.12588585 -11.875 74.5625 C-21.48724534 77.94020198 -28.85286112 84.23282677 -33.75 93.125 C-39.32840888 105.7298041 -38.98988038 118.33352304 -38.92578125 131.84375 C-38.92526156 134.01745605 -38.92578347 136.19116257 -38.92729187 138.36486816 C-38.92720255 142.90363655 -38.91685537 147.44222584 -38.89868164 151.98095703 C-38.87599628 157.770607 -38.8754549 163.55999584 -38.88219929 169.34967804 C-38.88555617 173.83321412 -38.8788769 178.31669173 -38.86907005 182.80021667 C-38.86524738 184.93385003 -38.86405753 187.06748992 -38.8656559 189.2011261 C-39.34944587 208.61914905 -39.34944587 208.61914905 -33.6875 226.875 C-32.94886719 228.29619141 -32.94886719 228.29619141 -32.1953125 229.74609375 C-27.17878618 238.0149613 -20.44078846 242.46389305 -11.25 245.3125 C0.99071797 248.17038915 11.4252216 246.52507652 22.375 240.34375 C31.38465208 233.77421203 34.38542655 221.56606235 37.4375 211.4375 C44.62891319 212.87354028 51.39044308 215.00256724 58.3046875 217.4296875 C59.4200589 217.81689972 60.5354303 218.20411194 61.68460083 218.60305786 C65.22888198 219.83486123 68.77067407 221.07365722 72.3125 222.3125 C74.68344007 223.13716072 77.05453249 223.96138358 79.42578125 224.78515625 C89.4530218 228.27386332 99.4684931 231.78512241 109.4375 235.4375 C110.10836446 255.66664361 98.87789813 276.79624638 86.0625 291.8125 C75.01102131 303.47476853 61.17267256 310.3152072 45.9375 314.75 C45.10814941 314.99250488 44.27879883 315.23500977 43.42431641 315.48486328 C30.20296974 319.11259365 17.15989488 319.81055279 3.53564453 319.80810547 C0.83691358 319.8124606 -1.86015193 319.84886486 -4.55859375 319.88671875 C-32.99923251 320.07077279 -58.98645811 311.92176461 -81.5625 294.4375 C-83.109375 293.2928125 -83.109375 293.2928125 -84.6875 292.125 C-106.09555431 272.11312314 -116.64614946 242.47123214 -117.66013336 213.66371346 C-117.70486407 210.75859921 -117.72039904 207.85491776 -117.72363281 204.94946289 C-117.72859772 203.85832184 -117.73356262 202.76718079 -117.73867798 201.64297485 C-117.75317325 198.06536201 -117.76008149 194.48779353 -117.765625 190.91015625 C-117.76845238 189.67646238 -117.77127975 188.44276852 -117.77419281 187.17168999 C-117.78760323 181.30906888 -117.7975133 175.44646352 -117.8013947 169.58382803 C-117.80541622 163.5475962 -117.81763493 157.5115208 -117.84375 151.4753418 C-117.87151966 144.95275309 -117.8841566 138.43029802 -117.88607025 131.9076519 C-117.88906595 129.4428947 -117.89698781 126.9781377 -117.91025543 124.51341438 C-118.001662 106.22315002 -117.57620275 87.9033525 -111.3125 70.5 C-111.00876465 69.62867432 -110.7050293 68.75734863 -110.39208984 67.85961914 C-101.07161381 41.93869753 -82.442832 22.20776129 -57.703125 10.38085938 C-53.92355975 8.7152298 -50.05611738 7.38451539 -46.125 6.125 C-45.41158447 5.89482178 -44.69816895 5.66464355 -43.96313477 5.42749023 C-29.30745473 1.01086525 -15.20583399 -0.10922505 0 0 Z " fill="#FFFEFE" transform="translate(261.5625,174.5625)"/>
<path d="M0 0 C25.41 0 50.82 0 77 0 C83.8068268 23.82389378 83.8068268 23.82389378 86.5625 35.6875 C88.64051383 44.47243115 90.81285521 53.20113076 93.29711914 61.87963867 C95.03752974 68.00026278 96.46621745 74.17182352 97.88800049 80.37315369 C98.92149648 84.76120846 100.11189089 89.09307687 101.34350586 93.42895508 C103.87925825 102.46224355 106.2165372 111.53788873 108.50390625 120.63671875 C108.91294837 122.25663056 109.32220944 123.87648709 109.73167419 125.49629211 C110.79552995 129.70667067 111.85705025 133.91763392 112.91784668 138.12878418 C114.61738852 144.87449454 116.32002606 151.6194229 118.02372551 158.36408424 C118.60952148 160.68491921 119.19395797 163.00609312 119.7782135 165.32731628 C120.1457327 166.78423816 120.51336032 168.24113269 120.88110352 169.69799805 C121.05656487 170.39523326 121.23202623 171.09246847 121.4128046 171.81083202 C122.2943685 175.29419974 123.20320048 178.76716674 124.16110229 182.2303772 C124.34780707 182.90965932 124.53451185 183.58894144 124.72687435 184.28880787 C125.2385524 186.13959313 125.75832022 187.9881365 126.27867126 189.83650208 C126.93110195 192.69783702 127.15141515 195.08316582 127 198 C127.66 198 128.32 198 129 198 C129.09802917 196.95601044 129.19605835 195.91202087 129.29705811 194.83639526 C130.0776256 188.6447187 131.71216636 182.65722586 133.24707031 176.61767578 C133.58433112 175.27636157 133.92117785 173.93494318 134.25764465 172.59342957 C135.16882941 168.96567018 136.08593474 165.33943176 137.00425434 161.71347284 C137.97002733 157.89636185 138.93068942 154.07796461 139.89202881 150.25973511 C141.50957916 143.83835189 143.13078591 137.41790082 144.75439453 130.99804688 C146.61990209 123.62160743 148.48063752 116.24397806 150.33853269 108.86561787 C152.32880424 100.9617007 154.32244281 93.05863562 156.31713009 85.15583181 C156.88520825 82.90428152 157.45269843 80.65258375 158.02005768 78.4008522 C164.67816926 51.98427592 164.67816926 51.98427592 167.50683594 42.06982422 C171.33763358 28.13385355 174.59489663 14.04605141 178 0 C203.74 0 229.48 0 256 0 C252.62575602 12.37222791 252.62575602 12.37222791 251.20092773 16.76025391 C250.87812332 17.75899536 250.55531891 18.75773682 250.22273254 19.78674316 C249.70835884 21.36570374 249.70835884 21.36570374 249.18359375 22.9765625 C248.81542038 24.11444214 248.44724701 25.25232178 248.06791687 26.42468262 C247.06845921 29.51348203 246.06702113 32.60163172 245.06504059 35.68961334 C243.11702278 41.69746009 241.1776458 47.70810555 239.23828125 53.71875 C238.90827496 54.74126043 238.90827496 54.74126043 238.57160187 55.78442764 C234.02466544 69.87762303 229.56642833 83.99821819 225.125 98.125 C218.46259249 119.3073668 211.67525179 140.44677002 204.82903671 161.57020187 C198.0804837 182.39372381 191.42284176 203.24333273 184.85650635 224.12521362 C175.73113844 253.13580792 166.35973957 282.06390372 157 311 C137.86 311 118.72 311 99 311 C91.53819968 288.90159136 84.35057652 266.74017242 77.35748291 244.48977661 C71.52935849 225.95047874 65.61672959 207.44102292 59.63180542 188.95183563 C52.63359867 167.33228494 45.72082168 145.68807995 38.90255737 124.01092529 C33.086039 105.52537912 27.17497177 87.07204738 21.21199036 68.63337708 C9.72117494 33.10107081 9.72117494 33.10107081 4.25 15.75 C4.02071808 15.02613098 3.79143616 14.30226196 3.5552063 13.55645752 C2.93476151 11.59590343 2.31878076 9.63393821 1.703125 7.671875 C1.36958008 6.6106543 1.03603516 5.54943359 0.69238281 4.45605469 C0 2 0 2 0 0 Z " fill="#FFFEFE" transform="translate(393,179)"/>
<path d="M0 0 C182.49 0 364.98 0 553 0 C553 20.13 553 40.26 553 61 C370.51 61 188.02 61 0 61 C0 40.87 0 20.74 0 0 Z " fill="#FFFFFF" transform="translate(112,570)"/>
</svg>
