<?xml version="1.0" encoding="UTF-8"?>
<svg xmlns="http://www.w3.org/2000/svg" xmlns:xlink="http://www.w3.org/1999/xlink" width="24px" height="24px" viewBox="0 0 24 23" version="1.1">
<g id="surface1">
<path style=" stroke:none;fill-rule:nonzero;fill:rgb(99.607843%,75.294118%,0%);fill-opacity:1;" d="M 3.070312 0.015625 C 3.148438 0.015625 3.230469 0.015625 3.308594 0.015625 C 3.484375 0.015625 3.660156 0.015625 3.832031 0.015625 C 4.09375 0.015625 4.351562 0.015625 4.609375 0.015625 C 5.074219 0.0117188 5.535156 0.0117188 6 0.015625 C 6.402344 0.015625 6.808594 0.015625 7.214844 0.015625 C 7.253906 0.015625 7.253906 0.015625 7.296875 0.015625 C 7.40625 0.015625 7.515625 0.015625 7.625 0.015625 C 8.648438 0.0117188 9.671875 0.015625 10.695312 0.015625 C 11.605469 0.015625 12.515625 0.015625 13.421875 0.015625 C 14.445312 0.015625 15.46875 0.0117188 16.488281 0.015625 C 16.597656 0.015625 16.707031 0.015625 16.816406 0.015625 C 16.855469 0.015625 16.855469 0.015625 16.898438 0.015625 C 17.304688 0.015625 17.707031 0.015625 18.113281 0.0117188 C 18.574219 0.0117188 19.035156 0.0117188 19.492188 0.015625 C 19.75 0.015625 20.007812 0.015625 20.265625 0.015625 C 20.457031 0.0117188 20.652344 0.015625 20.84375 0.015625 C 20.921875 0.015625 21 0.015625 21.078125 0.015625 C 21.589844 0.0117188 22.066406 0.0273438 22.523438 0.269531 C 22.546875 0.28125 22.566406 0.289062 22.585938 0.300781 C 23.214844 0.617188 23.625 1.132812 23.875 1.757812 C 23.953125 2.003906 23.976562 2.234375 23.976562 2.488281 C 23.976562 2.519531 23.976562 2.550781 23.976562 2.582031 C 23.976562 2.691406 23.976562 2.796875 23.976562 2.902344 C 23.976562 2.980469 23.976562 3.058594 23.976562 3.136719 C 23.976562 3.304688 23.976562 3.46875 23.976562 3.636719 C 23.976562 3.886719 23.976562 4.136719 23.976562 4.386719 C 23.980469 4.859375 23.980469 5.332031 23.980469 5.800781 C 23.980469 6.167969 23.980469 6.53125 23.980469 6.894531 C 23.980469 7 23.980469 7.105469 23.980469 7.210938 C 23.980469 7.25 23.980469 7.25 23.980469 7.289062 C 23.980469 8.023438 23.980469 8.757812 23.980469 9.488281 C 23.980469 9.515625 23.980469 9.546875 23.980469 9.574219 C 23.980469 9.714844 23.980469 9.855469 23.980469 9.992188 C 23.980469 10.035156 23.980469 10.035156 23.980469 10.078125 C 23.980469 10.132812 23.980469 10.191406 23.980469 10.246094 C 23.980469 11.121094 23.980469 12 23.980469 12.875 C 23.984375 13.859375 23.984375 14.839844 23.984375 15.824219 C 23.984375 15.929688 23.984375 16.035156 23.984375 16.140625 C 23.984375 16.179688 23.984375 16.179688 23.984375 16.21875 C 23.984375 16.632812 23.984375 17.050781 23.984375 17.464844 C 23.984375 17.882812 23.984375 18.300781 23.984375 18.71875 C 23.984375 18.96875 23.984375 19.214844 23.984375 19.464844 C 23.984375 19.648438 23.984375 19.832031 23.984375 20.019531 C 23.984375 20.09375 23.984375 20.167969 23.984375 20.242188 C 23.988281 20.734375 23.972656 21.195312 23.722656 21.632812 C 23.710938 21.652344 23.703125 21.671875 23.691406 21.695312 C 23.660156 21.75 23.628906 21.804688 23.59375 21.859375 C 23.582031 21.886719 23.566406 21.910156 23.550781 21.9375 C 23.21875 22.464844 22.636719 22.808594 22.03125 22.980469 C 21.886719 23.011719 21.746094 23.011719 21.597656 23.011719 C 21.566406 23.011719 21.53125 23.011719 21.496094 23.011719 C 21.382812 23.011719 21.269531 23.011719 21.15625 23.011719 C 21.074219 23.011719 20.992188 23.011719 20.910156 23.011719 C 20.734375 23.011719 20.554688 23.011719 20.378906 23.011719 C 20.113281 23.011719 19.847656 23.011719 19.585938 23.011719 C 19.085938 23.015625 18.585938 23.015625 18.085938 23.015625 C 17.699219 23.015625 17.3125 23.015625 16.925781 23.015625 C 16.871094 23.015625 16.816406 23.015625 16.757812 23.015625 C 16.71875 23.015625 16.71875 23.015625 16.675781 23.015625 C 16.648438 23.015625 16.621094 23.015625 16.59375 23.015625 C 16.566406 23.015625 16.535156 23.015625 16.507812 23.015625 C 15.730469 23.015625 14.953125 23.015625 14.175781 23.015625 C 14.148438 23.015625 14.117188 23.015625 14.085938 23.015625 C 13.9375 23.015625 13.789062 23.015625 13.640625 23.015625 C 13.613281 23.015625 13.582031 23.015625 13.550781 23.015625 C 13.492188 23.015625 13.433594 23.015625 13.375 23.015625 C 12.445312 23.015625 11.515625 23.015625 10.589844 23.015625 C 9.546875 23.015625 8.503906 23.019531 7.460938 23.019531 C 7.347656 23.019531 7.238281 23.019531 7.125 23.019531 C 7.097656 23.019531 7.070312 23.019531 7.042969 23.019531 C 6.628906 23.019531 6.214844 23.019531 5.804688 23.019531 C 5.332031 23.019531 4.863281 23.019531 4.394531 23.019531 C 4.128906 23.019531 3.867188 23.019531 3.605469 23.019531 C 3.429688 23.019531 3.253906 23.019531 3.078125 23.019531 C 2.976562 23.019531 2.875 23.019531 2.777344 23.019531 C 1.957031 23.023438 1.359375 22.828125 0.757812 22.269531 C 0.148438 21.660156 0.0429688 20.941406 0.046875 20.136719 C 0.046875 20.058594 0.046875 19.980469 0.046875 19.902344 C 0.046875 19.734375 0.046875 19.566406 0.046875 19.398438 C 0.046875 19.152344 0.046875 18.902344 0.046875 18.652344 C 0.046875 18.207031 0.046875 17.761719 0.046875 17.316406 C 0.046875 16.925781 0.046875 16.539062 0.046875 16.148438 C 0.046875 16.121094 0.046875 16.097656 0.046875 16.070312 C 0.046875 15.964844 0.046875 15.859375 0.046875 15.753906 C 0.046875 14.769531 0.046875 13.785156 0.046875 12.800781 C 0.046875 11.925781 0.046875 11.050781 0.046875 10.175781 C 0.046875 9.191406 0.046875 8.210938 0.046875 7.226562 C 0.046875 7.121094 0.046875 7.015625 0.046875 6.914062 C 0.046875 6.886719 0.046875 6.859375 0.046875 6.835938 C 0.046875 6.445312 0.046875 6.054688 0.046875 5.667969 C 0.046875 5.222656 0.046875 4.78125 0.046875 4.335938 C 0.046875 4.089844 0.046875 3.84375 0.046875 3.59375 C 0.046875 3.410156 0.046875 3.222656 0.046875 3.039062 C 0.046875 2.964844 0.046875 2.890625 0.046875 2.816406 C 0.0429688 2.328125 0.0585938 1.867188 0.304688 1.429688 C 0.3125 1.410156 0.324219 1.390625 0.335938 1.371094 C 0.671875 0.765625 1.199219 0.339844 1.871094 0.117188 C 2.269531 0.0078125 2.660156 0.0117188 3.070312 0.015625 Z M 3.070312 0.015625 "/>
<path style=" stroke:none;fill-rule:nonzero;fill:rgb(100%,99.607843%,99.607843%);fill-opacity:1;" d="M 8.140625 5.234375 C 8.171875 5.234375 8.199219 5.234375 8.230469 5.234375 C 9.164062 5.238281 10.046875 5.390625 10.75 6.03125 C 11.109375 6.398438 11.34375 6.847656 11.488281 7.332031 C 11.496094 7.367188 11.496094 7.367188 11.507812 7.398438 C 11.546875 7.546875 11.554688 7.675781 11.546875 7.828125 C 11.300781 7.925781 11.050781 8.007812 10.796875 8.089844 C 10.757812 8.101562 10.714844 8.117188 10.675781 8.128906 C 10.566406 8.164062 10.457031 8.199219 10.351562 8.234375 C 10.238281 8.269531 10.128906 8.304688 10.019531 8.339844 C 9.800781 8.40625 9.585938 8.476562 9.371094 8.546875 C 9.292969 8.46875 9.285156 8.414062 9.253906 8.308594 C 9.191406 8.101562 9.09375 7.917969 8.964844 7.738281 C 8.945312 7.726562 8.925781 7.71875 8.902344 7.707031 C 8.902344 7.6875 8.902344 7.667969 8.902344 7.648438 C 8.53125 7.464844 8.1875 7.367188 7.773438 7.46875 C 7.472656 7.570312 7.242188 7.761719 7.089844 8.027344 C 6.917969 8.40625 6.929688 8.78125 6.929688 9.1875 C 6.929688 9.253906 6.929688 9.320312 6.929688 9.382812 C 6.929688 9.519531 6.929688 9.65625 6.929688 9.792969 C 6.933594 9.964844 6.933594 10.140625 6.933594 10.3125 C 6.929688 10.449219 6.933594 10.582031 6.933594 10.714844 C 6.933594 10.78125 6.933594 10.84375 6.933594 10.90625 C 6.917969 11.492188 6.917969 11.492188 7.09375 12.039062 C 7.117188 12.082031 7.117188 12.082031 7.140625 12.125 C 7.296875 12.371094 7.503906 12.503906 7.792969 12.589844 C 8.171875 12.675781 8.496094 12.628906 8.839844 12.441406 C 9.117188 12.246094 9.210938 11.878906 9.308594 11.574219 C 9.53125 11.617188 9.742188 11.683594 9.957031 11.753906 C 9.992188 11.765625 10.027344 11.777344 10.0625 11.789062 C 10.171875 11.828125 10.28125 11.863281 10.394531 11.902344 C 10.46875 11.925781 10.539062 11.949219 10.613281 11.976562 C 10.925781 12.078125 11.238281 12.183594 11.546875 12.292969 C 11.570312 12.902344 11.21875 13.535156 10.820312 13.984375 C 10.476562 14.335938 10.046875 14.539062 9.570312 14.671875 C 9.546875 14.679688 9.519531 14.6875 9.492188 14.695312 C 9.082031 14.804688 8.675781 14.824219 8.253906 14.824219 C 8.167969 14.824219 8.085938 14.824219 8 14.828125 C 7.113281 14.832031 6.304688 14.589844 5.601562 14.0625 C 5.554688 14.03125 5.554688 14.03125 5.503906 13.996094 C 4.839844 13.394531 4.511719 12.503906 4.480469 11.640625 C 4.476562 11.554688 4.476562 11.46875 4.476562 11.378906 C 4.476562 11.347656 4.476562 11.316406 4.476562 11.28125 C 4.476562 11.175781 4.476562 11.066406 4.476562 10.960938 C 4.476562 10.921875 4.476562 10.886719 4.476562 10.847656 C 4.476562 10.671875 4.476562 10.496094 4.476562 10.320312 C 4.476562 10.140625 4.472656 9.957031 4.472656 9.777344 C 4.472656 9.582031 4.472656 9.386719 4.472656 9.191406 C 4.472656 9.117188 4.472656 9.042969 4.472656 8.96875 C 4.46875 8.417969 4.480469 7.871094 4.675781 7.347656 C 4.6875 7.324219 4.695312 7.296875 4.707031 7.269531 C 4.996094 6.492188 5.574219 5.902344 6.347656 5.546875 C 6.464844 5.496094 6.582031 5.457031 6.707031 5.417969 C 6.726562 5.410156 6.75 5.40625 6.773438 5.398438 C 7.230469 5.265625 7.667969 5.230469 8.140625 5.234375 Z M 8.140625 5.234375 "/>
<path style=" stroke:none;fill-rule:nonzero;fill:rgb(100%,99.607843%,99.607843%);fill-opacity:1;" d="M 12.234375 5.367188 C 13.023438 5.367188 13.816406 5.367188 14.628906 5.367188 C 14.84375 6.082031 14.84375 6.082031 14.929688 6.4375 C 14.992188 6.703125 15.058594 6.964844 15.136719 7.222656 C 15.191406 7.40625 15.234375 7.59375 15.28125 7.777344 C 15.3125 7.910156 15.351562 8.039062 15.386719 8.167969 C 15.46875 8.441406 15.539062 8.710938 15.609375 8.984375 C 15.625 9.035156 15.636719 9.082031 15.648438 9.132812 C 15.683594 9.257812 15.714844 9.382812 15.75 9.507812 C 15.800781 9.710938 15.855469 9.914062 15.90625 10.117188 C 15.925781 10.1875 15.945312 10.253906 15.960938 10.324219 C 15.972656 10.367188 15.984375 10.414062 15.996094 10.457031 C 16 10.476562 16.007812 10.5 16.011719 10.519531 C 16.039062 10.625 16.070312 10.726562 16.097656 10.832031 C 16.105469 10.851562 16.109375 10.871094 16.117188 10.894531 C 16.132812 10.949219 16.148438 11.003906 16.164062 11.058594 C 16.183594 11.144531 16.191406 11.21875 16.1875 11.304688 C 16.207031 11.304688 16.226562 11.304688 16.25 11.304688 C 16.253906 11.273438 16.253906 11.242188 16.257812 11.210938 C 16.28125 11.023438 16.332031 10.84375 16.382812 10.664062 C 16.390625 10.625 16.402344 10.582031 16.414062 10.542969 C 16.441406 10.433594 16.46875 10.324219 16.5 10.21875 C 16.527344 10.101562 16.558594 9.988281 16.589844 9.875 C 16.636719 9.679688 16.6875 9.488281 16.738281 9.296875 C 16.796875 9.074219 16.855469 8.851562 16.914062 8.632812 C 16.976562 8.394531 17.039062 8.160156 17.097656 7.921875 C 17.117188 7.855469 17.132812 7.785156 17.152344 7.71875 C 17.359375 6.925781 17.359375 6.925781 17.449219 6.628906 C 17.566406 6.210938 17.667969 5.789062 17.773438 5.367188 C 18.574219 5.367188 19.375 5.367188 20.203125 5.367188 C 20.097656 5.738281 20.097656 5.738281 20.054688 5.871094 C 20.042969 5.898438 20.03125 5.929688 20.023438 5.960938 C 20.007812 6.007812 20.007812 6.007812 19.988281 6.058594 C 19.980469 6.089844 19.96875 6.125 19.957031 6.160156 C 19.925781 6.253906 19.894531 6.34375 19.863281 6.4375 C 19.800781 6.617188 19.742188 6.796875 19.679688 6.980469 C 19.671875 7.007812 19.671875 7.007812 19.660156 7.039062 C 19.519531 7.464844 19.378906 7.886719 19.242188 8.308594 C 19.035156 8.945312 18.824219 9.578125 18.609375 10.210938 C 18.398438 10.835938 18.191406 11.460938 17.988281 12.089844 C 17.703125 12.957031 17.410156 13.824219 17.121094 14.695312 C 16.523438 14.695312 15.929688 14.695312 15.316406 14.695312 C 15.082031 14.03125 14.859375 13.367188 14.640625 12.699219 C 14.460938 12.144531 14.277344 11.589844 14.089844 11.035156 C 13.871094 10.386719 13.65625 9.738281 13.445312 9.085938 C 13.261719 8.53125 13.078125 7.980469 12.894531 7.425781 C 12.535156 6.359375 12.535156 6.359375 12.367188 5.839844 C 12.359375 5.816406 12.351562 5.796875 12.34375 5.773438 C 12.324219 5.714844 12.304688 5.65625 12.285156 5.597656 C 12.277344 5.566406 12.265625 5.535156 12.253906 5.5 C 12.234375 5.425781 12.234375 5.425781 12.234375 5.367188 Z M 12.234375 5.367188 "/>
<path style=" stroke:none;fill-rule:nonzero;fill:rgb(100%,100%,100%);fill-opacity:1;" d="M 3.488281 17.09375 C 9.167969 17.09375 14.847656 17.09375 20.699219 17.09375 C 20.699219 17.695312 20.699219 18.300781 20.699219 18.921875 C 15.019531 18.921875 9.339844 18.921875 3.488281 18.921875 C 3.488281 18.316406 3.488281 17.714844 3.488281 17.09375 Z M 3.488281 17.09375 "/>
</g>
</svg>
