<?xml version="1.0" encoding="UTF-8"?>
<svg xmlns="http://www.w3.org/2000/svg" xmlns:xlink="http://www.w3.org/1999/xlink" width="72px" height="72px" viewBox="0 0 72 71" version="1.1">
<g id="surface1">
<path style=" stroke:none;fill-rule:nonzero;fill:rgb(99.607843%,75.294118%,0%);fill-opacity:1;" d="M 9.207031 0.046875 C 9.449219 0.046875 9.6875 0.0429688 9.929688 0.0429688 C 10.453125 0.0429688 10.976562 0.0429688 11.5 0.0429688 C 12.277344 0.0429688 13.054688 0.0429688 13.832031 0.0429688 C 15.21875 0.0429688 16.609375 0.0429688 17.996094 0.0429688 C 19.210938 0.0429688 20.425781 0.0429688 21.644531 0.0429688 C 21.765625 0.0429688 21.765625 0.0429688 21.886719 0.0429688 C 22.214844 0.0429688 22.542969 0.0429688 22.871094 0.0429688 C 25.941406 0.0429688 29.015625 0.0429688 32.085938 0.0429688 C 34.816406 0.046875 37.542969 0.046875 40.269531 0.0429688 C 43.335938 0.0429688 46.402344 0.0429688 49.46875 0.0429688 C 49.796875 0.0429688 50.125 0.0429688 50.449219 0.0429688 C 50.570312 0.0429688 50.570312 0.0429688 50.695312 0.0429688 C 51.910156 0.0429688 53.125 0.0429688 54.335938 0.0429688 C 55.71875 0.0429688 57.101562 0.0429688 58.480469 0.0429688 C 59.253906 0.0429688 60.027344 0.0429688 60.796875 0.0429688 C 61.375 0.0429688 61.953125 0.0429688 62.53125 0.0429688 C 62.765625 0.046875 62.996094 0.046875 63.230469 0.0429688 C 64.765625 0.0390625 66.199219 0.0859375 67.574219 0.832031 C 67.636719 0.863281 67.695312 0.894531 67.757812 0.925781 C 69.644531 1.90625 70.878906 3.492188 71.625 5.429688 C 71.855469 6.183594 71.933594 6.894531 71.929688 7.679688 C 71.929688 7.777344 71.929688 7.875 71.929688 7.976562 C 71.933594 8.304688 71.933594 8.632812 71.929688 8.960938 C 71.933594 9.199219 71.933594 9.441406 71.933594 9.679688 C 71.933594 10.195312 71.933594 10.714844 71.933594 11.230469 C 71.933594 12.003906 71.933594 12.773438 71.933594 13.542969 C 71.9375 15 71.9375 16.457031 71.9375 17.910156 C 71.9375 19.035156 71.9375 20.160156 71.9375 21.285156 C 71.9375 21.609375 71.9375 21.933594 71.9375 22.257812 C 71.9375 22.378906 71.9375 22.378906 71.941406 22.5 C 71.941406 24.765625 71.941406 27.03125 71.941406 29.292969 C 71.941406 29.378906 71.941406 29.464844 71.941406 29.554688 C 71.941406 29.984375 71.941406 30.417969 71.941406 30.851562 C 71.941406 30.980469 71.941406 30.980469 71.941406 31.109375 C 71.941406 31.285156 71.941406 31.457031 71.941406 31.632812 C 71.941406 34.335938 71.941406 37.039062 71.945312 39.742188 C 71.949219 42.777344 71.949219 45.816406 71.949219 48.855469 C 71.949219 49.175781 71.949219 49.5 71.949219 49.824219 C 71.949219 49.945312 71.949219 49.945312 71.949219 50.066406 C 71.949219 51.351562 71.949219 52.632812 71.953125 53.914062 C 71.953125 55.207031 71.953125 56.496094 71.953125 57.785156 C 71.953125 58.550781 71.953125 59.316406 71.953125 60.082031 C 71.957031 60.652344 71.953125 61.226562 71.953125 61.796875 C 71.953125 62.03125 71.953125 62.261719 71.953125 62.492188 C 71.960938 64 71.921875 65.425781 71.171875 66.78125 C 71.136719 66.84375 71.105469 66.90625 71.070312 66.96875 C 70.980469 67.140625 70.882812 67.3125 70.785156 67.480469 C 70.742188 67.558594 70.699219 67.636719 70.65625 67.71875 C 69.660156 69.351562 67.90625 70.410156 66.097656 70.9375 C 65.664062 71.039062 65.238281 71.039062 64.796875 71.035156 C 64.695312 71.035156 64.59375 71.035156 64.488281 71.035156 C 64.148438 71.039062 63.8125 71.039062 63.472656 71.035156 C 63.226562 71.035156 62.980469 71.039062 62.734375 71.039062 C 62.203125 71.039062 61.667969 71.039062 61.132812 71.039062 C 60.339844 71.039062 59.546875 71.039062 58.753906 71.039062 C 57.253906 71.042969 55.753906 71.042969 54.253906 71.042969 C 53.09375 71.042969 51.9375 71.042969 50.777344 71.042969 C 50.609375 71.042969 50.445312 71.042969 50.277344 71.042969 C 50.152344 71.042969 50.152344 71.042969 50.027344 71.042969 C 49.945312 71.042969 49.863281 71.042969 49.777344 71.046875 C 49.695312 71.046875 49.609375 71.046875 49.527344 71.046875 C 47.191406 71.046875 44.859375 71.046875 42.527344 71.046875 C 42.441406 71.046875 42.351562 71.046875 42.261719 71.046875 C 41.816406 71.046875 41.371094 71.046875 40.925781 71.046875 C 40.835938 71.046875 40.746094 71.046875 40.65625 71.046875 C 40.476562 71.046875 40.296875 71.046875 40.121094 71.046875 C 37.335938 71.046875 34.550781 71.046875 31.765625 71.050781 C 28.636719 71.054688 25.507812 71.054688 22.378906 71.054688 C 22.046875 71.054688 21.710938 71.054688 21.378906 71.054688 C 21.296875 71.054688 21.214844 71.054688 21.128906 71.054688 C 19.890625 71.054688 18.648438 71.054688 17.410156 71.058594 C 16 71.058594 14.589844 71.058594 13.179688 71.058594 C 12.390625 71.058594 11.601562 71.058594 10.8125 71.058594 C 10.285156 71.0625 9.757812 71.058594 9.230469 71.058594 C 8.929688 71.058594 8.628906 71.058594 8.332031 71.058594 C 5.871094 71.070312 4.082031 70.464844 2.269531 68.742188 C 0.441406 66.867188 0.128906 64.652344 0.140625 62.15625 C 0.140625 61.917969 0.136719 61.679688 0.136719 61.4375 C 0.136719 60.921875 0.136719 60.40625 0.136719 59.886719 C 0.136719 59.117188 0.136719 58.347656 0.136719 57.578125 C 0.136719 56.203125 0.136719 54.832031 0.136719 53.457031 C 0.136719 52.253906 0.136719 51.050781 0.136719 49.847656 C 0.136719 49.765625 0.136719 49.6875 0.136719 49.605469 C 0.136719 49.28125 0.136719 48.957031 0.136719 48.632812 C 0.136719 45.59375 0.136719 42.550781 0.136719 39.511719 C 0.140625 36.8125 0.140625 34.113281 0.136719 31.414062 C 0.136719 28.378906 0.136719 25.34375 0.136719 22.308594 C 0.136719 21.984375 0.136719 21.660156 0.136719 21.335938 C 0.136719 21.257812 0.136719 21.179688 0.136719 21.097656 C 0.136719 19.894531 0.136719 18.691406 0.136719 17.492188 C 0.136719 16.125 0.136719 14.757812 0.136719 13.390625 C 0.136719 12.625 0.136719 11.859375 0.136719 11.097656 C 0.136719 10.523438 0.136719 9.953125 0.140625 9.382812 C 0.140625 9.152344 0.140625 8.921875 0.136719 8.691406 C 0.132812 7.191406 0.171875 5.765625 0.910156 4.414062 C 0.941406 4.351562 0.976562 4.292969 1.007812 4.230469 C 2.019531 2.359375 3.59375 1.046875 5.617188 0.363281 C 6.808594 0.0234375 7.976562 0.0390625 9.207031 0.046875 Z M 9.207031 0.046875 "/>
<path style=" stroke:none;fill-rule:nonzero;fill:rgb(100%,99.607843%,99.607843%);fill-opacity:1;" d="M 24.425781 16.160156 C 24.511719 16.160156 24.597656 16.160156 24.6875 16.160156 C 27.488281 16.175781 30.136719 16.644531 32.246094 18.621094 C 33.332031 19.757812 34.027344 21.140625 34.460938 22.640625 C 34.488281 22.738281 34.488281 22.738281 34.519531 22.84375 C 34.636719 23.292969 34.664062 23.695312 34.644531 24.160156 C 33.90625 24.464844 33.15625 24.722656 32.394531 24.972656 C 32.269531 25.011719 32.148438 25.054688 32.023438 25.09375 C 31.699219 25.203125 31.375 25.308594 31.050781 25.414062 C 30.71875 25.523438 30.386719 25.632812 30.054688 25.742188 C 29.40625 25.957031 28.757812 26.167969 28.109375 26.382812 C 27.875 26.148438 27.851562 25.972656 27.765625 25.652344 C 27.570312 25.003906 27.285156 24.4375 26.894531 23.882812 C 26.832031 23.851562 26.773438 23.820312 26.707031 23.789062 C 26.707031 23.730469 26.707031 23.667969 26.707031 23.605469 C 25.589844 23.039062 24.566406 22.742188 23.316406 23.0625 C 22.417969 23.375 21.730469 23.957031 21.273438 24.78125 C 20.753906 25.945312 20.785156 27.113281 20.789062 28.363281 C 20.792969 28.566406 20.789062 28.765625 20.789062 28.96875 C 20.789062 29.386719 20.792969 29.808594 20.792969 30.226562 C 20.796875 30.761719 20.796875 31.300781 20.796875 31.835938 C 20.792969 32.25 20.796875 32.664062 20.796875 33.082031 C 20.796875 33.277344 20.796875 33.476562 20.796875 33.671875 C 20.75 35.46875 20.75 35.46875 21.28125 37.160156 C 21.347656 37.292969 21.347656 37.292969 21.417969 37.425781 C 21.886719 38.191406 22.515625 38.601562 23.375 38.867188 C 24.519531 39.132812 25.492188 38.980469 26.515625 38.40625 C 27.355469 37.800781 27.636719 36.667969 27.921875 35.730469 C 28.59375 35.863281 29.226562 36.0625 29.871094 36.285156 C 29.976562 36.320312 30.078125 36.359375 30.1875 36.394531 C 30.515625 36.507812 30.847656 36.625 31.179688 36.738281 C 31.402344 36.8125 31.621094 36.890625 31.84375 36.96875 C 32.78125 37.289062 33.714844 37.613281 34.644531 37.953125 C 34.707031 39.824219 33.660156 41.78125 32.464844 43.171875 C 31.429688 44.25 30.140625 44.882812 28.714844 45.292969 C 28.636719 45.316406 28.5625 45.339844 28.480469 45.363281 C 27.246094 45.699219 26.027344 45.761719 24.757812 45.761719 C 24.503906 45.761719 24.253906 45.765625 24 45.769531 C 21.34375 45.789062 18.917969 45.03125 16.808594 43.414062 C 16.664062 43.308594 16.664062 43.308594 16.515625 43.199219 C 14.519531 41.347656 13.53125 38.605469 13.4375 35.9375 C 13.433594 35.667969 13.433594 35.398438 13.433594 35.128906 C 13.433594 35.03125 13.429688 34.929688 13.429688 34.824219 C 13.429688 34.492188 13.429688 34.164062 13.429688 33.832031 C 13.429688 33.71875 13.429688 33.601562 13.425781 33.484375 C 13.425781 32.941406 13.425781 32.398438 13.425781 31.855469 C 13.425781 31.296875 13.421875 30.738281 13.421875 30.179688 C 13.417969 29.578125 13.417969 28.972656 13.417969 28.371094 C 13.417969 28.140625 13.417969 27.914062 13.414062 27.683594 C 13.40625 25.992188 13.445312 24.296875 14.03125 22.683594 C 14.058594 22.605469 14.085938 22.523438 14.117188 22.441406 C 14.988281 20.042969 16.726562 18.214844 19.039062 17.121094 C 19.390625 16.964844 19.75 16.84375 20.117188 16.726562 C 20.183594 16.703125 20.25 16.683594 20.320312 16.660156 C 21.6875 16.253906 23.007812 16.148438 24.425781 16.160156 Z M 24.425781 16.160156 "/>
<path style=" stroke:none;fill-rule:nonzero;fill:rgb(100%,99.607843%,99.607843%);fill-opacity:1;" d="M 36.699219 16.570312 C 39.074219 16.570312 41.445312 16.570312 43.890625 16.570312 C 44.527344 18.773438 44.527344 18.773438 44.785156 19.875 C 44.976562 20.6875 45.179688 21.496094 45.414062 22.296875 C 45.574219 22.863281 45.707031 23.4375 45.839844 24.011719 C 45.9375 24.414062 46.050781 24.816406 46.164062 25.21875 C 46.402344 26.054688 46.621094 26.894531 46.832031 27.738281 C 46.871094 27.886719 46.910156 28.035156 46.949219 28.1875 C 47.046875 28.578125 47.144531 28.964844 47.246094 29.355469 C 47.402344 29.980469 47.5625 30.605469 47.722656 31.230469 C 47.777344 31.445312 47.832031 31.660156 47.886719 31.875 C 47.921875 32.007812 47.953125 32.144531 47.988281 32.277344 C 48.003906 32.34375 48.023438 32.40625 48.039062 32.472656 C 48.121094 32.796875 48.207031 33.117188 48.296875 33.4375 C 48.3125 33.5 48.328125 33.5625 48.347656 33.628906 C 48.394531 33.800781 48.445312 33.972656 48.492188 34.144531 C 48.554688 34.40625 48.574219 34.628906 48.558594 34.898438 C 48.621094 34.898438 48.683594 34.898438 48.746094 34.898438 C 48.757812 34.800781 48.765625 34.703125 48.773438 34.605469 C 48.847656 34.03125 49 33.476562 49.144531 32.917969 C 49.175781 32.792969 49.207031 32.671875 49.238281 32.546875 C 49.324219 32.210938 49.410156 31.875 49.496094 31.539062 C 49.585938 31.1875 49.675781 30.832031 49.765625 30.480469 C 49.914062 29.882812 50.066406 29.289062 50.21875 28.695312 C 50.390625 28.011719 50.566406 27.332031 50.738281 26.648438 C 50.925781 25.914062 51.113281 25.183594 51.296875 24.453125 C 51.351562 24.242188 51.402344 24.035156 51.457031 23.828125 C 52.078125 21.382812 52.078125 21.382812 52.34375 20.464844 C 52.699219 19.175781 53.003906 17.871094 53.324219 16.570312 C 55.726562 16.570312 58.128906 16.570312 60.605469 16.570312 C 60.292969 17.714844 60.292969 17.714844 60.160156 18.121094 C 60.128906 18.214844 60.097656 18.304688 60.066406 18.402344 C 60.019531 18.546875 60.019531 18.546875 59.96875 18.695312 C 59.9375 18.800781 59.902344 18.90625 59.867188 19.015625 C 59.773438 19.300781 59.679688 19.585938 59.585938 19.875 C 59.402344 20.429688 59.222656 20.984375 59.042969 21.542969 C 59.011719 21.636719 59.011719 21.636719 58.980469 21.734375 C 58.554688 23.039062 58.136719 24.34375 57.722656 25.652344 C 57.101562 27.613281 56.46875 29.570312 55.828125 31.527344 C 55.199219 33.453125 54.578125 35.382812 53.964844 37.316406 C 53.109375 40.003906 52.234375 42.679688 51.363281 45.359375 C 49.574219 45.359375 47.785156 45.359375 45.945312 45.359375 C 45.25 43.3125 44.578125 41.261719 43.925781 39.203125 C 43.378906 37.484375 42.828125 35.773438 42.269531 34.0625 C 41.617188 32.058594 40.96875 30.054688 40.332031 28.050781 C 39.789062 26.339844 39.238281 24.628906 38.679688 22.921875 C 37.609375 19.632812 37.609375 19.632812 37.097656 18.027344 C 37.074219 17.960938 37.054688 17.894531 37.03125 17.824219 C 36.972656 17.644531 36.917969 17.460938 36.859375 17.28125 C 36.828125 17.183594 36.796875 17.082031 36.765625 16.980469 C 36.699219 16.753906 36.699219 16.753906 36.699219 16.570312 Z M 36.699219 16.570312 "/>
<path style=" stroke:none;fill-rule:nonzero;fill:rgb(100%,100%,100%);fill-opacity:1;" d="M 10.460938 52.765625 C 27.5 52.765625 44.542969 52.765625 62.101562 52.765625 C 62.101562 54.628906 62.101562 56.492188 62.101562 58.410156 C 45.058594 58.410156 28.015625 58.410156 10.460938 58.410156 C 10.460938 56.546875 10.460938 54.683594 10.460938 52.765625 Z M 10.460938 52.765625 "/>
</g>
</svg>
