<?xml version="1.0" encoding="UTF-8"?>
<svg xmlns="http://www.w3.org/2000/svg" xmlns:xlink="http://www.w3.org/1999/xlink" width="50px" height="50px" viewBox="0 0 50 50" version="1.1">
<g id="surface1">
<path style=" stroke:none;fill-rule:nonzero;fill:rgb(99.607843%,75.294118%,0%);fill-opacity:1;" d="M 6.394531 0.378906 C 6.5625 0.378906 6.726562 0.378906 6.894531 0.378906 C 7.257812 0.378906 7.621094 0.378906 7.984375 0.378906 C 8.527344 0.378906 9.066406 0.378906 9.605469 0.378906 C 10.570312 0.378906 11.535156 0.378906 12.496094 0.378906 C 13.339844 0.378906 14.183594 0.378906 15.03125 0.378906 C 15.113281 0.378906 15.113281 0.378906 15.199219 0.378906 C 15.425781 0.378906 15.65625 0.378906 15.882812 0.378906 C 18.015625 0.378906 20.148438 0.378906 22.28125 0.378906 C 24.179688 0.378906 26.070312 0.378906 27.964844 0.378906 C 30.09375 0.378906 32.222656 0.378906 34.351562 0.378906 C 34.582031 0.378906 34.808594 0.378906 35.035156 0.378906 C 35.117188 0.378906 35.117188 0.378906 35.203125 0.378906 C 36.046875 0.378906 36.890625 0.378906 37.734375 0.378906 C 38.695312 0.378906 39.652344 0.378906 40.613281 0.378906 C 41.148438 0.378906 41.6875 0.378906 42.21875 0.378906 C 42.621094 0.378906 43.023438 0.378906 43.425781 0.378906 C 43.585938 0.378906 43.746094 0.378906 43.910156 0.378906 C 44.976562 0.375 45.972656 0.40625 46.925781 0.925781 C 46.96875 0.945312 47.011719 0.96875 47.054688 0.988281 C 48.363281 1.671875 49.222656 2.773438 49.738281 4.117188 C 49.898438 4.640625 49.953125 5.136719 49.953125 5.679688 C 49.953125 5.75 49.953125 5.816406 49.953125 5.886719 C 49.953125 6.113281 49.953125 6.34375 49.953125 6.570312 C 49.953125 6.734375 49.953125 6.902344 49.953125 7.070312 C 49.953125 7.425781 49.953125 7.789062 49.953125 8.144531 C 49.953125 8.683594 49.953125 9.21875 49.953125 9.753906 C 49.957031 10.765625 49.957031 11.777344 49.957031 12.785156 C 49.957031 13.566406 49.957031 14.347656 49.957031 15.128906 C 49.957031 15.355469 49.957031 15.578125 49.957031 15.804688 C 49.957031 15.886719 49.957031 15.886719 49.960938 15.972656 C 49.960938 17.546875 49.960938 19.117188 49.960938 20.691406 C 49.960938 20.75 49.960938 20.808594 49.960938 20.871094 C 49.960938 21.167969 49.960938 21.472656 49.960938 21.773438 C 49.960938 21.863281 49.960938 21.863281 49.960938 21.949219 C 49.960938 22.074219 49.960938 22.191406 49.960938 22.3125 C 49.960938 24.191406 49.960938 26.070312 49.960938 27.945312 C 49.964844 30.054688 49.964844 32.164062 49.964844 34.273438 C 49.964844 34.496094 49.964844 34.722656 49.964844 34.949219 C 49.964844 35.03125 49.964844 35.03125 49.964844 35.117188 C 49.964844 36.007812 49.964844 36.898438 49.96875 37.789062 C 49.96875 38.683594 49.96875 39.582031 49.96875 40.476562 C 49.96875 41.007812 49.96875 41.539062 49.96875 42.070312 C 49.96875 42.46875 49.96875 42.867188 49.96875 43.261719 C 49.96875 43.425781 49.96875 43.585938 49.96875 43.746094 C 49.972656 44.792969 49.945312 45.78125 49.425781 46.722656 C 49.402344 46.765625 49.378906 46.808594 49.355469 46.851562 C 49.292969 46.972656 49.222656 47.09375 49.15625 47.207031 C 49.125 47.261719 49.097656 47.316406 49.066406 47.375 C 48.375 48.507812 47.15625 49.242188 45.902344 49.609375 C 45.601562 49.679688 45.304688 49.679688 44.996094 49.675781 C 44.925781 49.675781 44.855469 49.675781 44.785156 49.675781 C 44.546875 49.679688 44.3125 49.679688 44.078125 49.675781 C 43.90625 49.675781 43.738281 49.679688 43.566406 49.679688 C 43.195312 49.679688 42.824219 49.679688 42.453125 49.679688 C 41.902344 49.679688 41.351562 49.679688 40.800781 49.679688 C 39.757812 49.683594 38.71875 49.683594 37.675781 49.683594 C 36.871094 49.683594 36.066406 49.683594 35.261719 49.683594 C 35.144531 49.683594 35.03125 49.683594 34.914062 49.683594 C 34.828125 49.683594 34.828125 49.683594 34.742188 49.683594 C 34.683594 49.683594 34.628906 49.683594 34.566406 49.683594 C 34.511719 49.683594 34.449219 49.683594 34.394531 49.683594 C 32.773438 49.683594 31.152344 49.683594 29.53125 49.683594 C 29.472656 49.683594 29.410156 49.683594 29.347656 49.683594 C 29.039062 49.683594 28.730469 49.683594 28.421875 49.683594 C 28.359375 49.683594 28.296875 49.683594 28.234375 49.683594 C 28.109375 49.683594 27.984375 49.683594 27.863281 49.683594 C 25.929688 49.683594 23.992188 49.683594 22.058594 49.6875 C 19.886719 49.691406 17.714844 49.691406 15.539062 49.691406 C 15.308594 49.691406 15.078125 49.691406 14.847656 49.691406 C 14.789062 49.691406 14.734375 49.691406 14.671875 49.691406 C 13.8125 49.691406 12.949219 49.691406 12.089844 49.695312 C 11.109375 49.695312 10.132812 49.695312 9.152344 49.695312 C 8.605469 49.695312 8.054688 49.695312 7.507812 49.695312 C 7.140625 49.695312 6.777344 49.695312 6.410156 49.695312 C 6.203125 49.695312 5.992188 49.695312 5.785156 49.695312 C 4.078125 49.703125 2.835938 49.28125 1.574219 48.085938 C 0.304688 46.78125 0.0898438 45.246094 0.0976562 43.511719 C 0.0976562 43.347656 0.09375 43.179688 0.09375 43.011719 C 0.09375 42.652344 0.09375 42.296875 0.09375 41.933594 C 0.09375 41.402344 0.09375 40.867188 0.09375 40.332031 C 0.09375 39.378906 0.09375 38.425781 0.09375 37.46875 C 0.09375 36.632812 0.09375 35.800781 0.09375 34.964844 C 0.09375 34.90625 0.09375 34.851562 0.09375 34.796875 C 0.09375 34.570312 0.09375 34.34375 0.09375 34.121094 C 0.09375 32.007812 0.09375 29.894531 0.09375 27.785156 C 0.0976562 25.910156 0.0976562 24.035156 0.09375 22.164062 C 0.09375 20.054688 0.09375 17.945312 0.09375 15.839844 C 0.09375 15.613281 0.09375 15.390625 0.09375 15.164062 C 0.09375 15.109375 0.09375 15.054688 0.09375 15 C 0.09375 14.164062 0.09375 13.328125 0.09375 12.496094 C 0.09375 11.546875 0.09375 10.59375 0.09375 9.644531 C 0.09375 9.113281 0.09375 8.582031 0.09375 8.054688 C 0.09375 7.65625 0.09375 7.257812 0.0976562 6.863281 C 0.0976562 6.703125 0.0976562 6.542969 0.09375 6.382812 C 0.09375 5.339844 0.121094 4.351562 0.632812 3.414062 C 0.652344 3.367188 0.679688 3.328125 0.699219 3.285156 C 1.402344 1.984375 2.496094 1.074219 3.902344 0.597656 C 4.726562 0.363281 5.539062 0.375 6.394531 0.378906 Z M 6.394531 0.378906 "/>
<path style=" stroke:none;fill-rule:nonzero;fill:rgb(100%,99.607843%,99.607843%);fill-opacity:1;" d="M 16.960938 11.570312 C 17.023438 11.570312 17.082031 11.570312 17.144531 11.570312 C 19.089844 11.582031 20.929688 11.90625 22.394531 13.277344 C 23.148438 14.066406 23.628906 15.027344 23.929688 16.070312 C 23.949219 16.136719 23.949219 16.136719 23.972656 16.210938 C 24.054688 16.523438 24.070312 16.800781 24.058594 17.125 C 23.546875 17.335938 23.023438 17.515625 22.496094 17.6875 C 22.410156 17.714844 22.324219 17.746094 22.238281 17.773438 C 22.011719 17.847656 21.789062 17.921875 21.5625 17.996094 C 21.332031 18.070312 21.101562 18.148438 20.871094 18.222656 C 20.421875 18.371094 19.96875 18.519531 19.519531 18.667969 C 19.359375 18.507812 19.339844 18.382812 19.28125 18.160156 C 19.144531 17.710938 18.949219 17.316406 18.675781 16.933594 C 18.632812 16.910156 18.59375 16.890625 18.546875 16.867188 C 18.546875 16.828125 18.546875 16.785156 18.546875 16.738281 C 17.769531 16.347656 17.058594 16.140625 16.191406 16.363281 C 15.566406 16.578125 15.089844 16.984375 14.773438 17.554688 C 14.414062 18.363281 14.433594 19.175781 14.4375 20.042969 C 14.441406 20.183594 14.4375 20.324219 14.4375 20.464844 C 14.4375 20.753906 14.441406 21.046875 14.441406 21.335938 C 14.441406 21.710938 14.441406 22.082031 14.441406 22.457031 C 14.441406 22.742188 14.441406 23.03125 14.441406 23.320312 C 14.441406 23.457031 14.441406 23.59375 14.441406 23.730469 C 14.410156 24.976562 14.410156 24.976562 14.777344 26.152344 C 14.824219 26.246094 14.824219 26.246094 14.875 26.335938 C 15.199219 26.867188 15.636719 27.152344 16.234375 27.339844 C 17.027344 27.523438 17.703125 27.417969 18.414062 27.019531 C 18.996094 26.597656 19.191406 25.8125 19.390625 25.160156 C 19.855469 25.253906 20.296875 25.390625 20.742188 25.546875 C 20.816406 25.570312 20.886719 25.597656 20.964844 25.621094 C 21.191406 25.699219 21.421875 25.78125 21.652344 25.859375 C 21.808594 25.910156 21.960938 25.964844 22.113281 26.019531 C 22.765625 26.242188 23.414062 26.46875 24.058594 26.703125 C 24.101562 28.003906 23.375 29.363281 22.546875 30.328125 C 21.828125 31.078125 20.929688 31.515625 19.941406 31.800781 C 19.886719 31.816406 19.835938 31.832031 19.777344 31.847656 C 18.921875 32.082031 18.074219 32.125 17.191406 32.125 C 17.015625 32.125 16.84375 32.128906 16.667969 32.132812 C 14.820312 32.144531 13.136719 31.617188 11.671875 30.496094 C 11.570312 30.421875 11.570312 30.421875 11.46875 30.347656 C 10.082031 29.0625 9.398438 27.15625 9.332031 25.304688 C 9.328125 25.117188 9.328125 24.929688 9.328125 24.742188 C 9.328125 24.675781 9.328125 24.605469 9.328125 24.53125 C 9.328125 24.300781 9.328125 24.070312 9.328125 23.839844 C 9.328125 23.761719 9.328125 23.679688 9.324219 23.601562 C 9.324219 23.222656 9.324219 22.847656 9.324219 22.46875 C 9.324219 22.082031 9.320312 21.691406 9.320312 21.304688 C 9.316406 20.886719 9.316406 20.46875 9.316406 20.050781 C 9.316406 19.890625 9.316406 19.730469 9.316406 19.570312 C 9.308594 18.398438 9.335938 17.21875 9.742188 16.101562 C 9.761719 16.046875 9.78125 15.988281 9.804688 15.929688 C 10.410156 14.265625 11.617188 12.996094 13.222656 12.238281 C 13.464844 12.128906 13.714844 12.042969 13.96875 11.960938 C 14.015625 11.945312 14.0625 11.933594 14.109375 11.917969 C 15.0625 11.632812 15.976562 11.5625 16.960938 11.570312 Z M 16.960938 11.570312 "/>
<path style=" stroke:none;fill-rule:nonzero;fill:rgb(100%,99.607843%,99.607843%);fill-opacity:1;" d="M 25.484375 11.855469 C 27.136719 11.855469 28.78125 11.855469 30.480469 11.855469 C 30.921875 13.382812 30.921875 13.382812 31.101562 14.148438 C 31.234375 14.714844 31.375 15.273438 31.539062 15.832031 C 31.648438 16.222656 31.742188 16.625 31.832031 17.023438 C 31.902344 17.300781 31.980469 17.582031 32.058594 17.859375 C 32.222656 18.441406 32.375 19.023438 32.523438 19.609375 C 32.550781 19.714844 32.578125 19.816406 32.605469 19.921875 C 32.671875 20.191406 32.738281 20.460938 32.808594 20.734375 C 32.917969 21.167969 33.03125 21.601562 33.140625 22.035156 C 33.179688 22.183594 33.214844 22.332031 33.253906 22.484375 C 33.277344 22.574219 33.300781 22.667969 33.324219 22.761719 C 33.335938 22.808594 33.351562 22.851562 33.359375 22.898438 C 33.417969 23.121094 33.476562 23.34375 33.539062 23.566406 C 33.550781 23.609375 33.5625 23.65625 33.574219 23.699219 C 33.605469 23.820312 33.640625 23.9375 33.675781 24.058594 C 33.71875 24.242188 33.730469 24.394531 33.722656 24.582031 C 33.765625 24.582031 33.808594 24.582031 33.851562 24.582031 C 33.859375 24.515625 33.863281 24.445312 33.871094 24.378906 C 33.921875 23.980469 34.027344 23.59375 34.128906 23.207031 C 34.148438 23.121094 34.171875 23.035156 34.191406 22.949219 C 34.253906 22.714844 34.3125 22.484375 34.371094 22.25 C 34.433594 22.003906 34.496094 21.757812 34.558594 21.515625 C 34.664062 21.097656 34.769531 20.6875 34.875 20.273438 C 34.992188 19.800781 35.117188 19.328125 35.234375 18.851562 C 35.363281 18.34375 35.496094 17.835938 35.621094 17.328125 C 35.660156 17.183594 35.695312 17.039062 35.734375 16.894531 C 36.164062 15.195312 36.164062 15.195312 36.351562 14.558594 C 36.597656 13.664062 36.808594 12.757812 37.03125 11.855469 C 38.699219 11.855469 40.367188 11.855469 42.085938 11.855469 C 41.871094 12.648438 41.871094 12.648438 41.777344 12.929688 C 41.757812 12.996094 41.734375 13.058594 41.710938 13.125 C 41.679688 13.226562 41.679688 13.226562 41.644531 13.328125 C 41.625 13.402344 41.597656 13.476562 41.574219 13.550781 C 41.507812 13.75 41.445312 13.949219 41.378906 14.148438 C 41.25 14.535156 41.125 14.917969 41.003906 15.308594 C 40.980469 15.371094 40.980469 15.371094 40.957031 15.441406 C 40.664062 16.347656 40.371094 17.253906 40.085938 18.160156 C 39.652344 19.523438 39.214844 20.882812 38.769531 22.242188 C 38.332031 23.578125 37.902344 24.917969 37.476562 26.261719 C 36.882812 28.128906 36.273438 29.984375 35.667969 31.847656 C 34.425781 31.847656 33.183594 31.847656 31.90625 31.847656 C 31.421875 30.425781 30.957031 29 30.503906 27.570312 C 30.125 26.378906 29.742188 25.191406 29.355469 24 C 28.902344 22.609375 28.449219 21.21875 28.007812 19.828125 C 27.632812 18.640625 27.25 17.449219 26.859375 16.265625 C 26.117188 13.980469 26.117188 13.980469 25.761719 12.867188 C 25.746094 12.820312 25.734375 12.773438 25.714844 12.726562 C 25.675781 12.601562 25.636719 12.472656 25.597656 12.347656 C 25.574219 12.28125 25.554688 12.210938 25.53125 12.140625 C 25.484375 11.980469 25.484375 11.980469 25.484375 11.855469 Z M 25.484375 11.855469 "/>
<path style=" stroke:none;fill-rule:nonzero;fill:rgb(100%,100%,100%);fill-opacity:1;" d="M 7.265625 36.988281 C 19.097656 36.988281 30.933594 36.988281 43.125 36.988281 C 43.125 38.285156 43.125 39.578125 43.125 40.910156 C 31.289062 40.910156 19.457031 40.910156 7.265625 40.910156 C 7.265625 39.617188 7.265625 38.320312 7.265625 36.988281 Z M 7.265625 36.988281 "/>
</g>
</svg>
