<?xml version="1.0" encoding="UTF-8"?>
<svg xmlns="http://www.w3.org/2000/svg" xmlns:xlink="http://www.w3.org/1999/xlink" width="50px" height="50px" viewBox="0 0 50 50" version="1.1">
<g id="surface1">
<path style=" stroke:none;fill-rule:nonzero;fill:rgb(25.882353%,52.156863%,95.686275%);fill-opacity:1;" d="M 7.5 0 L 42.5 0 C 46.640625 0 50 3.359375 50 7.5 L 50 42.5 C 50 46.640625 46.640625 50 42.5 50 L 7.5 50 C 3.359375 50 0 46.640625 0 42.5 L 0 7.5 C 0 3.359375 3.359375 0 7.5 0 Z M 7.5 0 "/>
<path style=" stroke:none;fill-rule:nonzero;fill:rgb(100%,100%,100%);fill-opacity:1;" d="M 20.800781 10.839844 L 10.351562 20.019531 L 17.089844 20.019531 C 17.578125 24.414062 21.09375 26.269531 24.707031 26.5625 C 24.023438 28.320312 24.316406 29.199219 25.390625 30.371094 C 21.191406 30.46875 15.332031 32.910156 15.332031 36.914062 C 15.722656 41.308594 21.484375 42.1875 24.316406 42.1875 C 28.027344 42.285156 32.226562 40.332031 33.105469 36.914062 C 33.496094 33.496094 32.128906 31.640625 30.078125 29.980469 C 27.832031 28.222656 27.34375 27.246094 28.027344 26.074219 C 29.492188 24.414062 31.445312 23.4375 31.835938 21.09375 C 32.03125 19.433594 31.640625 18.359375 31.25 16.894531 L 35.644531 13.183594 L 35.546875 14.746094 C 35.253906 14.941406 35.058594 15.332031 35.058594 15.625 L 35.058594 25.683594 C 35.253906 26.953125 37.207031 26.757812 37.304688 25.683594 L 37.304688 15.625 C 37.304688 15.332031 37.109375 14.941406 36.816406 14.84375 L 36.816406 12.402344 L 38.378906 10.839844 Z M 26.464844 24.609375 C 20.507812 25.585938 17.96875 16.113281 22.753906 14.941406 C 28.222656 13.867188 30.859375 23.339844 26.464844 24.609375 Z M 25.976562 31.738281 C 31.835938 33.007812 31.933594 37.890625 26.953125 39.355469 C 22.65625 40.234375 18.945312 38.964844 19.042969 36.425781 C 19.042969 33.984375 22.460938 31.738281 25.976562 31.738281 Z M 25.976562 31.738281 "/>
</g>
</svg>
