<?xml version="1.0" encoding="UTF-8"?>
<svg xmlns="http://www.w3.org/2000/svg" xmlns:xlink="http://www.w3.org/1999/xlink" width="72px" height="720px" viewBox="0 0 72 72" version="1.1">
<g id="surface1">
<path style=" stroke:none;fill-rule:nonzero;fill:rgb(25.882353%,52.156863%,95.686275%);fill-opacity:1;" d="M 10.800781 0 L 61.199219 0 C 67.164062 0 72 4.835938 72 10.800781 L 72 61.199219 C 72 67.164062 67.164062 72 61.199219 72 L 10.800781 72 C 4.835938 72 0 67.164062 0 61.199219 L 0 10.800781 C 0 4.835938 4.835938 0 10.800781 0 Z M 10.800781 0 "/>
<path style=" stroke:none;fill-rule:nonzero;fill:rgb(100%,100%,100%);fill-opacity:1;" d="M 29.953125 15.609375 L 14.90625 28.828125 L 24.609375 28.828125 C 25.3125 35.15625 30.375 37.828125 35.578125 38.25 C 34.59375 40.78125 35.015625 42.046875 36.5625 43.734375 C 30.515625 43.875 22.078125 47.390625 22.078125 53.15625 C 22.640625 59.484375 30.9375 60.75 35.015625 60.75 C 40.359375 60.890625 46.40625 58.078125 47.671875 53.15625 C 48.234375 48.234375 46.265625 45.5625 43.3125 43.171875 C 40.078125 40.640625 39.375 39.234375 40.359375 37.546875 C 42.46875 35.15625 45.28125 33.75 45.84375 30.375 C 46.125 27.984375 45.5625 26.4375 45 24.328125 L 51.328125 18.984375 L 51.1875 21.234375 C 50.765625 21.515625 50.484375 22.078125 50.484375 22.5 L 50.484375 36.984375 C 50.765625 38.8125 53.578125 38.53125 53.71875 36.984375 L 53.71875 22.5 C 53.71875 22.078125 53.4375 21.515625 53.015625 21.375 L 53.015625 17.859375 L 55.265625 15.609375 Z M 38.109375 35.4375 C 29.53125 36.84375 25.875 23.203125 32.765625 21.515625 C 40.640625 19.96875 44.4375 33.609375 38.109375 35.4375 Z M 37.40625 45.703125 C 45.84375 47.53125 45.984375 54.5625 38.8125 56.671875 C 32.625 57.9375 27.28125 56.109375 27.421875 52.453125 C 27.421875 48.9375 32.34375 45.703125 37.40625 45.703125 Z M 37.40625 45.703125 "/>
</g>
</svg>
