<?xml version="1.0" encoding="UTF-8"?>
<svg xmlns="http://www.w3.org/2000/svg" xmlns:xlink="http://www.w3.org/1999/xlink" width="72px" height="720px" viewBox="0 0 72 72" version="1.1">
<g id="surface1">
<path style=" stroke:none;fill-rule:evenodd;fill:rgb(0%,49.411765%,73.333333%);fill-opacity:1;" d="M 8 72 L 64 72 C 68.417969 72 72 68.417969 72 64 L 72 8 C 72 3.582031 68.417969 0 64 0 L 8 0 C 3.582031 0 0 3.582031 0 8 L 0 64 C 0 68.417969 3.582031 72 8 72 Z M 8 72 "/>
<path style=" stroke:none;fill-rule:evenodd;fill:rgb(100%,100%,100%);fill-opacity:1;" d="M 62 62 L 51.316406 62 L 51.316406 43.800781 C 51.316406 38.8125 49.417969 36.023438 45.46875 36.023438 C 41.175781 36.023438 38.929688 38.925781 38.929688 43.800781 L 38.929688 62 L 28.632812 62 L 28.632812 27.332031 L 38.929688 27.332031 L 38.929688 32.003906 C 38.929688 32.003906 42.027344 26.273438 49.382812 26.273438 C 56.734375 26.273438 62 30.765625 62 40.050781 Z M 16.347656 22.792969 C 12.84375 22.792969 10 19.929688 10 16.398438 C 10 12.863281 12.84375 10 16.347656 10 C 19.855469 10 22.695312 12.863281 22.695312 16.398438 C 22.695312 19.929688 19.855469 22.792969 16.347656 22.792969 Z M 11.03125 62 L 21.769531 62 L 21.769531 27.332031 L 11.03125 27.332031 Z M 11.03125 62 "/>
</g>
</svg>
