<?xml version="1.0" encoding="UTF-8"?>
<svg xmlns="http://www.w3.org/2000/svg" xmlns:xlink="http://www.w3.org/1999/xlink" width="50px" height="50px" viewBox="0 0 50 50" version="1.1">
<g id="surface1">
<path style=" stroke:none;fill-rule:evenodd;fill:rgb(0%,49.411765%,73.333333%);fill-opacity:1;" d="M 5.554688 50 L 44.445312 50 C 47.511719 50 50 47.511719 50 44.445312 L 50 5.554688 C 50 2.488281 47.511719 0 44.445312 0 L 5.554688 0 C 2.488281 0 0 2.488281 0 5.554688 L 0 44.445312 C 0 47.511719 2.488281 50 5.554688 50 Z M 5.554688 50 "/>
<path style=" stroke:none;fill-rule:evenodd;fill:rgb(100%,100%,100%);fill-opacity:1;" d="M 43.054688 43.054688 L 35.636719 43.054688 L 35.636719 30.417969 C 35.636719 26.953125 34.320312 25.015625 31.578125 25.015625 C 28.59375 25.015625 27.035156 27.03125 27.035156 30.417969 L 27.035156 43.054688 L 19.882812 43.054688 L 19.882812 18.980469 L 27.035156 18.980469 L 27.035156 22.222656 C 27.035156 22.222656 29.183594 18.246094 34.292969 18.246094 C 39.398438 18.246094 43.054688 21.363281 43.054688 27.8125 Z M 11.355469 15.828125 C 8.917969 15.828125 6.945312 13.839844 6.945312 11.386719 C 6.945312 8.933594 8.917969 6.945312 11.355469 6.945312 C 13.789062 6.945312 15.761719 8.933594 15.761719 11.386719 C 15.761719 13.839844 13.789062 15.828125 11.355469 15.828125 Z M 7.660156 43.054688 L 15.117188 43.054688 L 15.117188 18.980469 L 7.660156 18.980469 Z M 7.660156 43.054688 "/>
</g>
</svg>
