<?xml version="1.0" encoding="UTF-8"?>
<svg xmlns="http://www.w3.org/2000/svg" xmlns:xlink="http://www.w3.org/1999/xlink" width="72px" height="720px" viewBox="0 0 72 72" version="1.1">
<g id="surface1">
<path style=" stroke:none;fill-rule:nonzero;fill:rgb(92.941176%,11.372549%,14.117647%);fill-opacity:1;" d="M 10.800781 0 L 61.199219 0 C 67.164062 0 72 4.835938 72 10.800781 L 72 61.199219 C 72 67.164062 67.164062 72 61.199219 72 L 10.800781 72 C 4.835938 72 0 67.164062 0 61.199219 L 0 10.800781 C 0 4.835938 4.835938 0 10.800781 0 Z M 10.800781 0 "/>
<path style=" stroke:none;fill-rule:nonzero;fill:rgb(100%,100%,100%);fill-opacity:1;" d="M 60.046875 23.765625 C 59.484375 21.65625 57.65625 19.96875 55.546875 19.40625 C 50.765625 18.140625 21.9375 18 16.453125 19.40625 C 14.34375 19.96875 12.515625 21.65625 11.953125 23.765625 C 10.6875 29.109375 10.546875 42.75 11.953125 48.234375 C 12.515625 50.34375 14.34375 52.03125 16.453125 52.59375 C 21.515625 54 50.34375 54 55.546875 52.59375 C 57.65625 52.03125 59.484375 50.34375 60.046875 48.234375 C 61.3125 43.171875 61.3125 28.96875 60.046875 23.765625 "/>
<path style=" stroke:none;fill-rule:nonzero;fill:rgb(92.941176%,11.372549%,14.117647%);fill-opacity:1;" d="M 30.9375 28.546875 L 30.9375 43.453125 L 44.015625 36 "/>
</g>
</svg>
