<?xml version="1.0" encoding="UTF-8"?>
<svg xmlns="http://www.w3.org/2000/svg" xmlns:xlink="http://www.w3.org/1999/xlink" width="50px" height="50px" viewBox="0 0 50 50" version="1.1">
<g id="surface1">
<path style=" stroke:none;fill-rule:nonzero;fill:rgb(92.941176%,11.372549%,14.117647%);fill-opacity:1;" d="M 7.5 0 L 42.5 0 C 46.640625 0 50 3.359375 50 7.5 L 50 42.5 C 50 46.640625 46.640625 50 42.5 50 L 7.5 50 C 3.359375 50 0 46.640625 0 42.5 L 0 7.5 C 0 3.359375 3.359375 0 7.5 0 Z M 7.5 0 "/>
<path style=" stroke:none;fill-rule:nonzero;fill:rgb(100%,100%,100%);fill-opacity:1;" d="M 41.699219 16.503906 C 41.308594 15.039062 40.039062 13.867188 38.574219 13.476562 C 35.253906 12.597656 15.234375 12.5 11.425781 13.476562 C 9.960938 13.867188 8.691406 15.039062 8.300781 16.503906 C 7.421875 20.214844 7.324219 29.6875 8.300781 33.496094 C 8.691406 34.960938 9.960938 36.132812 11.425781 36.523438 C 14.941406 37.5 34.960938 37.5 38.574219 36.523438 C 40.039062 36.132812 41.308594 34.960938 41.699219 33.496094 C 42.578125 29.980469 42.578125 20.117188 41.699219 16.503906 "/>
<path style=" stroke:none;fill-rule:nonzero;fill:rgb(92.941176%,11.372549%,14.117647%);fill-opacity:1;" d="M 21.484375 19.824219 L 21.484375 30.175781 L 30.566406 25 "/>
</g>
</svg>
